<mxfile host="app.diagrams.net" modified="2020-08-26T01:46:48.966Z" agent="5.0 (Windows NT 10.0; Win64; x64) AppleWebKit/537.36 (KHTML, like Gecko) Chrome/81.0.4044.138 Safari/537.36" etag="-2M-W3PvcGQJOzkXqW6x" version="13.5.9" type="github">
  <diagram id="G5EO3YA6KEtt-HFC7gUY" name="Page-1">
    <mxGraphModel dx="1488" dy="686" grid="1" gridSize="10" guides="1" tooltips="1" connect="1" arrows="1" fold="1" page="1" pageScale="1" pageWidth="827" pageHeight="1169" math="0" shadow="0">
      <root>
        <mxCell id="0" />
        <mxCell id="1" parent="0" />
        <mxCell id="hesz0DM63eV8RAysMzW6-1" value="" style="whiteSpace=wrap;html=1;aspect=fixed;" vertex="1" parent="1">
          <mxGeometry x="760" y="610" width="120" height="120" as="geometry" />
        </mxCell>
        <mxCell id="hesz0DM63eV8RAysMzW6-2" value="" style="whiteSpace=wrap;html=1;aspect=fixed;" vertex="1" parent="1">
          <mxGeometry x="540" y="610" width="120" height="120" as="geometry" />
        </mxCell>
        <mxCell id="hesz0DM63eV8RAysMzW6-3" value="block ops" style="edgeStyle=orthogonalEdgeStyle;rounded=0;orthogonalLoop=1;jettySize=auto;html=1;entryX=0.5;entryY=0;entryDx=0;entryDy=0;" edge="1" parent="1" source="hesz0DM63eV8RAysMzW6-5" target="hesz0DM63eV8RAysMzW6-1">
          <mxGeometry relative="1" as="geometry">
            <Array as="points">
              <mxPoint x="600" y="440" />
              <mxPoint x="820" y="440" />
            </Array>
          </mxGeometry>
        </mxCell>
        <mxCell id="hesz0DM63eV8RAysMzW6-4" style="edgeStyle=orthogonalEdgeStyle;rounded=0;orthogonalLoop=1;jettySize=auto;html=1;" edge="1" parent="1" source="hesz0DM63eV8RAysMzW6-5">
          <mxGeometry relative="1" as="geometry">
            <mxPoint x="860" y="360" as="targetPoint" />
          </mxGeometry>
        </mxCell>
        <mxCell id="hesz0DM63eV8RAysMzW6-5" value="NameNode" style="rounded=0;whiteSpace=wrap;html=1;" vertex="1" parent="1">
          <mxGeometry x="540" y="330" width="120" height="60" as="geometry" />
        </mxCell>
        <mxCell id="hesz0DM63eV8RAysMzW6-6" value="metadata ops" style="edgeStyle=orthogonalEdgeStyle;rounded=0;orthogonalLoop=1;jettySize=auto;html=1;entryX=0;entryY=0.5;entryDx=0;entryDy=0;exitX=1;exitY=0.5;exitDx=0;exitDy=0;" edge="1" parent="1" source="hesz0DM63eV8RAysMzW6-32" target="hesz0DM63eV8RAysMzW6-5">
          <mxGeometry relative="1" as="geometry">
            <mxPoint x="160" y="490" as="sourcePoint" />
          </mxGeometry>
        </mxCell>
        <mxCell id="hesz0DM63eV8RAysMzW6-7" style="edgeStyle=orthogonalEdgeStyle;rounded=0;orthogonalLoop=1;jettySize=auto;html=1;entryX=0.5;entryY=1;entryDx=0;entryDy=0;" edge="1" parent="1" source="hesz0DM63eV8RAysMzW6-10" target="hesz0DM63eV8RAysMzW6-19">
          <mxGeometry relative="1" as="geometry">
            <Array as="points">
              <mxPoint x="565" y="920" />
            </Array>
          </mxGeometry>
        </mxCell>
        <mxCell id="hesz0DM63eV8RAysMzW6-8" value="write" style="edgeLabel;html=1;align=center;verticalAlign=middle;resizable=0;points=[];" vertex="1" connectable="0" parent="hesz0DM63eV8RAysMzW6-7">
          <mxGeometry x="0.0755" y="3" relative="1" as="geometry">
            <mxPoint as="offset" />
          </mxGeometry>
        </mxCell>
        <mxCell id="hesz0DM63eV8RAysMzW6-9" style="edgeStyle=orthogonalEdgeStyle;rounded=0;orthogonalLoop=1;jettySize=auto;html=1;entryX=0.5;entryY=1;entryDx=0;entryDy=0;" edge="1" parent="1" source="hesz0DM63eV8RAysMzW6-10" target="hesz0DM63eV8RAysMzW6-23">
          <mxGeometry relative="1" as="geometry" />
        </mxCell>
        <mxCell id="hesz0DM63eV8RAysMzW6-10" value="client" style="ellipse;whiteSpace=wrap;html=1;" vertex="1" parent="1">
          <mxGeometry x="640" y="880" width="120" height="80" as="geometry" />
        </mxCell>
        <mxCell id="hesz0DM63eV8RAysMzW6-11" value="read" style="edgeStyle=orthogonalEdgeStyle;rounded=0;orthogonalLoop=1;jettySize=auto;html=1;entryX=0.5;entryY=1;entryDx=0;entryDy=0;" edge="1" parent="1" source="hesz0DM63eV8RAysMzW6-12" target="hesz0DM63eV8RAysMzW6-32">
          <mxGeometry relative="1" as="geometry">
            <mxPoint x="190" y="540" as="targetPoint" />
            <Array as="points">
              <mxPoint x="105" y="670" />
            </Array>
          </mxGeometry>
        </mxCell>
        <mxCell id="hesz0DM63eV8RAysMzW6-12" value="" style="whiteSpace=wrap;html=1;aspect=fixed;" vertex="1" parent="1">
          <mxGeometry x="200" y="610" width="120" height="120" as="geometry" />
        </mxCell>
        <mxCell id="hesz0DM63eV8RAysMzW6-13" value="" style="whiteSpace=wrap;html=1;aspect=fixed;" vertex="1" parent="1">
          <mxGeometry x="210" y="630" width="30" height="30" as="geometry" />
        </mxCell>
        <mxCell id="hesz0DM63eV8RAysMzW6-14" value="" style="whiteSpace=wrap;html=1;aspect=fixed;" vertex="1" parent="1">
          <mxGeometry x="270" y="630" width="30" height="30" as="geometry" />
        </mxCell>
        <mxCell id="hesz0DM63eV8RAysMzW6-15" value="" style="whiteSpace=wrap;html=1;aspect=fixed;" vertex="1" parent="1">
          <mxGeometry x="270" y="690" width="30" height="30" as="geometry" />
        </mxCell>
        <mxCell id="hesz0DM63eV8RAysMzW6-16" value="" style="whiteSpace=wrap;html=1;aspect=fixed;" vertex="1" parent="1">
          <mxGeometry x="380" y="610" width="120" height="120" as="geometry" />
        </mxCell>
        <mxCell id="hesz0DM63eV8RAysMzW6-17" value="" style="whiteSpace=wrap;html=1;aspect=fixed;" vertex="1" parent="1">
          <mxGeometry x="390" y="630" width="30" height="30" as="geometry" />
        </mxCell>
        <mxCell id="hesz0DM63eV8RAysMzW6-18" value="" style="whiteSpace=wrap;html=1;aspect=fixed;" vertex="1" parent="1">
          <mxGeometry x="390" y="690" width="30" height="30" as="geometry" />
        </mxCell>
        <mxCell id="hesz0DM63eV8RAysMzW6-19" value="" style="whiteSpace=wrap;html=1;aspect=fixed;" vertex="1" parent="1">
          <mxGeometry x="550" y="630" width="30" height="30" as="geometry" />
        </mxCell>
        <mxCell id="hesz0DM63eV8RAysMzW6-20" value="" style="whiteSpace=wrap;html=1;aspect=fixed;" vertex="1" parent="1">
          <mxGeometry x="610" y="630" width="30" height="30" as="geometry" />
        </mxCell>
        <mxCell id="hesz0DM63eV8RAysMzW6-21" value="" style="shape=curlyBracket;whiteSpace=wrap;html=1;rounded=1;direction=north;" vertex="1" parent="1">
          <mxGeometry x="250" y="730" width="340" height="20" as="geometry" />
        </mxCell>
        <mxCell id="hesz0DM63eV8RAysMzW6-22" value="Datanodes" style="text;html=1;align=center;verticalAlign=middle;resizable=0;points=[];autosize=1;" vertex="1" parent="1">
          <mxGeometry x="370" y="570" width="80" height="20" as="geometry" />
        </mxCell>
        <mxCell id="hesz0DM63eV8RAysMzW6-23" value="" style="whiteSpace=wrap;html=1;aspect=fixed;" vertex="1" parent="1">
          <mxGeometry x="770" y="630" width="30" height="30" as="geometry" />
        </mxCell>
        <mxCell id="hesz0DM63eV8RAysMzW6-24" value="" style="whiteSpace=wrap;html=1;aspect=fixed;" vertex="1" parent="1">
          <mxGeometry x="830" y="630" width="30" height="30" as="geometry" />
        </mxCell>
        <mxCell id="hesz0DM63eV8RAysMzW6-25" value="" style="whiteSpace=wrap;html=1;aspect=fixed;" vertex="1" parent="1">
          <mxGeometry x="920" y="610" width="120" height="120" as="geometry" />
        </mxCell>
        <mxCell id="hesz0DM63eV8RAysMzW6-26" value="" style="whiteSpace=wrap;html=1;aspect=fixed;" vertex="1" parent="1">
          <mxGeometry x="930" y="630" width="30" height="30" as="geometry" />
        </mxCell>
        <mxCell id="hesz0DM63eV8RAysMzW6-27" value="" style="whiteSpace=wrap;html=1;aspect=fixed;" vertex="1" parent="1">
          <mxGeometry x="990" y="630" width="30" height="30" as="geometry" />
        </mxCell>
        <mxCell id="hesz0DM63eV8RAysMzW6-28" value="" style="whiteSpace=wrap;html=1;aspect=fixed;" vertex="1" parent="1">
          <mxGeometry x="930" y="680" width="30" height="30" as="geometry" />
        </mxCell>
        <mxCell id="hesz0DM63eV8RAysMzW6-29" value="" style="whiteSpace=wrap;html=1;aspect=fixed;" vertex="1" parent="1">
          <mxGeometry x="990" y="680" width="30" height="30" as="geometry" />
        </mxCell>
        <mxCell id="hesz0DM63eV8RAysMzW6-30" value="" style="shape=curlyBracket;whiteSpace=wrap;html=1;rounded=1;direction=north;" vertex="1" parent="1">
          <mxGeometry x="770" y="730" width="230" height="20" as="geometry" />
        </mxCell>
        <mxCell id="hesz0DM63eV8RAysMzW6-31" value="replication" style="endArrow=classic;startArrow=classic;html=1;entryX=0;entryY=0.5;entryDx=0;entryDy=0;exitX=1;exitY=0.5;exitDx=0;exitDy=0;" edge="1" parent="1" source="hesz0DM63eV8RAysMzW6-2" target="hesz0DM63eV8RAysMzW6-1">
          <mxGeometry width="50" height="50" relative="1" as="geometry">
            <mxPoint x="480" y="740" as="sourcePoint" />
            <mxPoint x="530" y="690" as="targetPoint" />
          </mxGeometry>
        </mxCell>
        <mxCell id="hesz0DM63eV8RAysMzW6-32" value="client" style="ellipse;whiteSpace=wrap;html=1;" vertex="1" parent="1">
          <mxGeometry x="60" y="450" width="90" height="80" as="geometry" />
        </mxCell>
        <mxCell id="hesz0DM63eV8RAysMzW6-33" value="rack2" style="text;html=1;align=center;verticalAlign=middle;resizable=0;points=[];autosize=1;" vertex="1" parent="1">
          <mxGeometry x="865" y="750" width="50" height="20" as="geometry" />
        </mxCell>
        <mxCell id="hesz0DM63eV8RAysMzW6-34" value="rack1" style="text;html=1;align=center;verticalAlign=middle;resizable=0;points=[];autosize=1;" vertex="1" parent="1">
          <mxGeometry x="405" y="750" width="50" height="20" as="geometry" />
        </mxCell>
        <mxCell id="hesz0DM63eV8RAysMzW6-35" value="Metadata（Name，replicas）" style="whiteSpace=wrap;html=1;" vertex="1" parent="1">
          <mxGeometry x="860" y="330" width="120" height="60" as="geometry" />
        </mxCell>
        <mxCell id="hesz0DM63eV8RAysMzW6-36" value="HDFS 1.x" style="ellipse;shape=cloud;whiteSpace=wrap;html=1;fillColor=#FFE599;" vertex="1" parent="1">
          <mxGeometry x="80" y="170" width="120" height="80" as="geometry" />
        </mxCell>
        <mxCell id="hesz0DM63eV8RAysMzW6-37" value="" style="whiteSpace=wrap;html=1;fillColor=#D5E8D4;" vertex="1" parent="1">
          <mxGeometry x="310" y="1120" width="630" height="100" as="geometry" />
        </mxCell>
        <mxCell id="hesz0DM63eV8RAysMzW6-38" value="zk1" style="rounded=0;whiteSpace=wrap;html=1;fillColor=#FFE599;" vertex="1" parent="1">
          <mxGeometry x="350" y="1150" width="120" height="60" as="geometry" />
        </mxCell>
        <mxCell id="hesz0DM63eV8RAysMzW6-39" value="zk2" style="rounded=0;whiteSpace=wrap;html=1;fillColor=#FFE599;" vertex="1" parent="1">
          <mxGeometry x="550" y="1150" width="120" height="60" as="geometry" />
        </mxCell>
        <mxCell id="hesz0DM63eV8RAysMzW6-40" value="zk3" style="rounded=0;whiteSpace=wrap;html=1;fillColor=#FFE599;" vertex="1" parent="1">
          <mxGeometry x="760" y="1150" width="120" height="60" as="geometry" />
        </mxCell>
        <mxCell id="hesz0DM63eV8RAysMzW6-41" value="zookeeper集群" style="text;html=1;align=center;verticalAlign=middle;resizable=0;points=[];autosize=1;" vertex="1" parent="1">
          <mxGeometry x="540" y="1100" width="100" height="20" as="geometry" />
        </mxCell>
        <mxCell id="hesz0DM63eV8RAysMzW6-42" value="" style="whiteSpace=wrap;html=1;fillColor=#D5E8D4;" vertex="1" parent="1">
          <mxGeometry x="420" y="1320" width="470" height="100" as="geometry" />
        </mxCell>
        <mxCell id="hesz0DM63eV8RAysMzW6-43" value="jn1" style="rounded=0;whiteSpace=wrap;html=1;fillColor=#FFE599;" vertex="1" parent="1">
          <mxGeometry x="450" y="1350" width="90" height="60" as="geometry" />
        </mxCell>
        <mxCell id="hesz0DM63eV8RAysMzW6-44" value="journalnode集群" style="text;html=1;align=center;verticalAlign=middle;resizable=0;points=[];autosize=1;" vertex="1" parent="1">
          <mxGeometry x="585" y="1300" width="110" height="20" as="geometry" />
        </mxCell>
        <mxCell id="hesz0DM63eV8RAysMzW6-45" value="jn2" style="rounded=0;whiteSpace=wrap;html=1;fillColor=#FFE599;" vertex="1" parent="1">
          <mxGeometry x="610" y="1350" width="90" height="60" as="geometry" />
        </mxCell>
        <mxCell id="hesz0DM63eV8RAysMzW6-46" value="jn3" style="rounded=0;whiteSpace=wrap;html=1;fillColor=#FFE599;" vertex="1" parent="1">
          <mxGeometry x="760" y="1350" width="90" height="60" as="geometry" />
        </mxCell>
        <mxCell id="hesz0DM63eV8RAysMzW6-47" value="" style="rounded=0;whiteSpace=wrap;html=1;fillColor=#D5E8D4;" vertex="1" parent="1">
          <mxGeometry x="490" y="1490" width="380" height="100" as="geometry" />
        </mxCell>
        <mxCell id="hesz0DM63eV8RAysMzW6-48" value="Namenode" style="rounded=0;whiteSpace=wrap;html=1;fillColor=#D5E8D4;" vertex="1" parent="1">
          <mxGeometry x="510" y="1510" width="120" height="60" as="geometry" />
        </mxCell>
        <mxCell id="hesz0DM63eV8RAysMzW6-49" value="Namenode" style="rounded=0;whiteSpace=wrap;html=1;fillColor=#D5E8D4;" vertex="1" parent="1">
          <mxGeometry x="725" y="1510" width="120" height="60" as="geometry" />
        </mxCell>
        <mxCell id="hesz0DM63eV8RAysMzW6-50" value="" style="rounded=0;whiteSpace=wrap;html=1;fillColor=#D5E8D4;" vertex="1" parent="1">
          <mxGeometry x="350" y="1670" width="640" height="100" as="geometry" />
        </mxCell>
        <mxCell id="hesz0DM63eV8RAysMzW6-51" value="Datanode" style="rounded=0;whiteSpace=wrap;html=1;fillColor=#D5E8D4;" vertex="1" parent="1">
          <mxGeometry x="370" y="1690" width="120" height="60" as="geometry" />
        </mxCell>
        <mxCell id="hesz0DM63eV8RAysMzW6-52" value="Namenode" style="rounded=0;whiteSpace=wrap;html=1;fillColor=#D5E8D4;" vertex="1" parent="1">
          <mxGeometry x="585" y="1690" width="120" height="60" as="geometry" />
        </mxCell>
        <mxCell id="hesz0DM63eV8RAysMzW6-53" value="Namenode" style="rounded=0;whiteSpace=wrap;html=1;fillColor=#D5E8D4;" vertex="1" parent="1">
          <mxGeometry x="830" y="1690" width="120" height="60" as="geometry" />
        </mxCell>
      </root>
    </mxGraphModel>
  </diagram>
</mxfile>
